<svg xmlns="http://www.w3.org/2000/svg" viewBox="0 0 48 48" fill="none">
  <!-- Galaxy-style edit sparkles (filled, works as <img>) -->
  <path fill="#2a211c" d="M24 4.5c.55 0 1 .34 1.18.85l2.12 5.95a2.2 2.2 0 0 0 1.3 1.3l5.95 2.12c.51.18.85.63.85 1.18s-.34 1-.85 1.18l-5.95 2.12a2.2 2.2 0 0 0-1.3 1.3l-2.12 5.95c-.18.51-.63.85-1.18.85s-1-.34-1.18-.85l-2.12-5.95a2.2 2.2 0 0 0-1.3-1.3l-5.95-2.12A1.24 1.24 0 0 1 13.6 15.9c0-.55.34-1 .85-1.18l5.95-2.12a2.2 2.2 0 0 0 1.3-1.3l2.12-5.95c.18-.51.63-.85 1.18-.85Z"/>
  <path fill="#2a211c" d="M37.5 27.2c.4 0 .74.25.86.63l1.18 3.5a1.4 1.4 0 0 0 .82.82l3.5 1.18c.38.12.63.46.63.86s-.25.74-.63.86l-3.5 1.18a1.4 1.4 0 0 0-.82.82l-1.18 3.5c-.12.38-.46.63-.86.63s-.74-.25-.86-.63l-1.18-3.5a1.4 1.4 0 0 0-.82-.82l-3.5-1.18a.9.9 0 0 1-.63-.86c0-.4.25-.74.63-.86l3.5-1.18a1.4 1.4 0 0 0 .82-.82l1.18-3.5c.12-.38.46-.63.86-.63Z"/>
  <path fill="#2a211c" d="M11.2 29.5c.32 0 .6.2.7.5l.8 2.4c.12.36.4.64.76.76l2.4.8c.3.1.5.38.5.7s-.2.6-.5.7l-2.4.8a1.1 1.1 0 0 0-.76.76l-.8 2.4c-.1.3-.38.5-.7.5s-.6-.2-.7-.5l-.8-2.4a1.1 1.1 0 0 0-.76-.76l-2.4-.8a.72.72 0 0 1-.5-.7c0-.32.2-.6.5-.7l2.4-.8c.36-.12.64-.4.76-.76l.8-2.4c.1-.3.38-.5.7-.5Z"/>
</svg>
